<?xml version="1.0" standalone="no"?><!DOCTYPE svg PUBLIC "-//W3C//DTD SVG 1.1//EN" "http://www.w3.org/Graphics/SVG/1.1/DTD/svg11.dtd"><svg t="1602901743763" class="icon" viewBox="0 0 1024 1024" version="1.1" xmlns="http://www.w3.org/2000/svg" p-id="4649" xmlns:xlink="http://www.w3.org/1999/xlink" width="200" height="200"><defs><style type="text/css"></style></defs><path d="M282.4 244.7h459.1l4.5 0.3c11.2-1 21.2-6.2 29.2-13.7 8.2-8.8 13.5-20.3 13.5-33.3v-24.2c0-13-5.2-25-13.5-33.2-8.5-8.8-20.5-14-33.7-14H282.4c-13 0-25 5.2-33.5 14-8.5 8.2-13.5 20.2-13.5 33.2V198c0 13 5 24.5 13.5 33.3 8 7.5 17.5 12.7 29 13.7l4.5-0.3z m22.5 227.2c19.5 0 35.5 16 35.5 35.2 0 19.2-16 35.2-35.5 35.2s-35-16-35-35.2c0-19.2 15.6-35.2 35-35.2z m0-160.7c19.5 0 35.5 15.7 35.5 35 0 19.8-16 35.5-35.5 35.5s-35-15.7-35-35.5c0-19.3 15.6-35 35-35z m0-160.7c19.5 0 35.5 16 35.5 35.3 0 19.7-16 35.2-35.5 35.2s-35-15.5-35-35.2c0-19.3 15.6-35.3 35-35.3z m242.5 458.4v96c18.7 5.5 36 16 49.5 30 13.5 13.2 23.7 29.5 29.5 48.2h307.9c19.5 0 35.2 15.2 35.2 35.2 0 19.3-15.7 35-35.2 35h-307c-5.8 19.7-16 37.5-30.5 51.2-21.5 22.2-51.5 35.5-85 35.5-33 0-63.5-13.2-85-35.5-14-13.8-24.5-31.5-30.5-51.2H89.5c-19.5 0-35-15.8-35-35 0-20 15.5-35.2 35-35.2h307.9c6-18.8 16.5-35 29.5-48.2 13.7-14 30.7-24.5 49.7-30v-96H282.4c-24.5 0-47-10.3-63.2-26.5v-0.5C203 566.4 193 543.6 193 519.1v-24.2c0-24.5 10-47 26.3-63.2 1.8-1.8 3.3-3.3 5.5-5.3-2.2-1.2-3.7-3-5.5-4.5-16.3-16.5-26.3-38.7-26.3-63.2v-24.5c0-24.5 10-47 26.3-62.7 1.8-2.3 3.3-3.7 5.5-5-2.2-2-3.7-3.8-5.5-5.2C203 244.9 193 222.5 193 198v-24.2c0-24.5 10-47.2 26.3-63.3C235.5 94.2 257.5 84 282.4 84h459.1c24.8 0 47 10.2 63.2 26.5 16 16 26.3 38.8 26.3 63.3V198c0 24.5-10.3 47-26.3 63.2-1.5 1.5-3.7 3.3-5.5 5.2 1.8 1.3 3.5 2.7 5.5 5 16 16 26.3 38.2 26.3 62.7v24.5c0 24.5-10.3 47-26.3 63.2-1.5 1.5-3.7 3.3-5.5 4.5 1.8 2 3.5 3.5 5.5 5.3 16 16.2 26.3 38.8 26.3 63.2V519c0 24.5-10.3 47.2-26.3 62.7-16.2 16.7-38.5 27-63.2 27H547.4v0.2z m198.7-321.7l-4.5 0.2H282.4l-4.5-0.2c-11.5 0.7-21 6-29 13.7-8.5 8.5-13.5 20.3-13.5 33.2v24.5c0 12.8 5 24.8 13.5 33.2v0.5c8 7.2 17.5 12.5 29 13.2l4.5-0.2h459.1l4.5 0.2c11.2-0.7 21.2-6 29.2-13.7 8.2-8.5 13.5-20.5 13.5-33.2v-24.5c0-13-5.2-24.7-13.5-33.2v-0.5c-7.9-7.2-17.9-12.5-29.1-13.2z m0 160.7l-4.5 0.3H282.4l-4.5-0.3c-11.5 1-21 6-29 13.7-8.5 8.8-13.5 20.3-13.5 33.2V519c0 13 5 24.7 13.5 33.2 8.5 8.8 20.5 14 33.5 14h459.1c13.2 0 24.8-5.2 33.7-14 8.2-8.5 13.5-20.2 13.5-33.2v-24.2c0-13-5.2-24.5-13.5-33.2-7.9-7.7-17.9-12.7-29.1-13.7zM566.9 764.3c-14-14-33-22.8-55-22.8-21.5 0-41 8.8-55 22.8-14 14.3-23 33.5-23 55.2 0 21.8 9 41.2 23 55.2s33.5 22.7 55 22.7c22 0 41-8.7 55-22.7 14.5-14 23-33.5 23-55.2 0-21.7-8.5-40.9-23-55.2z m0 0" p-id="4650"></path></svg>