<?xml version="1.0" standalone="no"?><!DOCTYPE svg PUBLIC "-//W3C//DTD SVG 1.1//EN" "http://www.w3.org/Graphics/SVG/1.1/DTD/svg11.dtd"><svg t="1602901880521" class="icon" viewBox="0 0 1024 1024" version="1.1" xmlns="http://www.w3.org/2000/svg" p-id="6940" xmlns:xlink="http://www.w3.org/1999/xlink" width="200" height="200"><defs><style type="text/css"></style></defs><path d="M551.936 1007.616H109.568c-51.712 0-93.184-41.984-93.184-93.184V100.864c0-51.712 41.984-93.184 93.184-93.184h381.44c51.712 0 93.184 41.984 93.184 93.184v347.136h-64V100.864c0-16.384-13.312-29.696-29.696-29.696H109.568c-16.384 0-29.696 13.312-29.696 29.696v813.056c0 16.384 13.312 29.696 29.696 29.696h442.88v64zM817.664 445.44h-64V151.04c0-10.752-8.704-19.456-19.456-19.456H655.36V67.584h79.36c46.08 0 82.944 37.376 82.944 82.944V445.44z" p-id="6941"></path><path d="M158.72 224.768h283.136v64H158.72zM158.72 401.92h283.136V465.92H158.72z" p-id="6942"></path><path d="M300.032 687.104m-59.904 0a59.904 59.904 0 1 0 119.808 0 59.904 59.904 0 1 0-119.808 0Z" p-id="6943"></path><path d="M936.96 161.792h64V445.44H936.96zM727.552 1005.568l-283.648-316.416 117.76-156.16h331.264l117.76 156.16-283.136 316.416zM526.848 686.08l200.704 223.744 200.704-223.744-67.072-88.576H593.92L526.848 686.08z" p-id="6944"></path><path d="M727.552 813.568l-115.712-118.784 32.768-32.256 82.944 84.992 82.944-84.992 32.768 32.256z" p-id="6945"></path></svg>