<?xml version="1.0" standalone="no"?><!DOCTYPE svg PUBLIC "-//W3C//DTD SVG 1.1//EN" "http://www.w3.org/Graphics/SVG/1.1/DTD/svg11.dtd"><svg t="1602819421428" class="icon" viewBox="0 0 1024 1024" version="1.1" xmlns="http://www.w3.org/2000/svg" p-id="3813" xmlns:xlink="http://www.w3.org/1999/xlink" width="200" height="200"><defs><style type="text/css"></style></defs><path d="M398.222222 56.888889H113.777778c-28.444444 0-56.888889 28.444444-56.888889 56.888889v796.444444c0 28.444444 28.444444 56.888889 56.888889 56.888889h284.444444c28.444444 0 56.888889-28.444444 56.888889-56.888889V113.777778c0-28.444444-28.444444-56.888889-56.888889-56.888889zM256 739.555556c-45.511111 0-85.333333-39.822222-85.333333-85.333334S210.488889 568.888889 256 568.888889s85.333333 39.822222 85.333333 85.333333S301.511111 739.555556 256 739.555556zM398.222222 398.222222H113.777778V341.333333h284.444444v56.888889z m0-113.777778H113.777778V227.555556h284.444444v56.888888zM910.222222 56.888889h-284.444444c-28.444444 0-56.888889 28.444444-56.888889 56.888889v796.444444c0 28.444444 28.444444 56.888889 56.888889 56.888889h284.444444c28.444444 0 56.888889-28.444444 56.888889-56.888889V113.777778c0-28.444444-28.444444-56.888889-56.888889-56.888889z m-142.222222 682.666667c-45.511111 0-85.333333-39.822222-85.333333-85.333334s39.822222-85.333333 85.333333-85.333333 85.333333 39.822222 85.333333 85.333333-39.822222 85.333333-85.333333 85.333334zM910.222222 398.222222h-284.444444V341.333333h284.444444v56.888889z m0-113.777778h-284.444444V227.555556h284.444444v56.888888z" fill="" p-id="3814"></path></svg>