<?xml version="1.0" standalone="no"?><!DOCTYPE svg PUBLIC "-//W3C//DTD SVG 1.1//EN" "http://www.w3.org/Graphics/SVG/1.1/DTD/svg11.dtd"><svg t="1602901865599" class="icon" viewBox="0 0 1024 1024" version="1.1" xmlns="http://www.w3.org/2000/svg" p-id="6756" xmlns:xlink="http://www.w3.org/1999/xlink" width="200" height="200"><defs><style type="text/css"></style></defs><path d="M372.305 745.773C403.023 787.057 441.673 822.09 486 848.615v-127.74c-39.818 2.647-78.01 11.24-113.695 24.898z m-51.609 24.217a392.912 392.912 0 0 0-60.194 41.64h-1.271c56.974 48.113 127.858 80.27 205.76 89.58-57.186-32.69-106.475-77.62-144.295-131.22zM295.985 540c4.004 56.745 20.087 110.155 45.691 157.675 44.903-18.522 93.476-29.956 144.324-32.91V540H295.985z m-56.124 0H120.985c6.296 89.215 42.447 170.188 98.523 232.989a449.204 449.204 0 0 1 71.8-50.725C262.051 667.323 243.903 605.57 239.86 540z m445.864 158.764c25.95-47.793 42.251-101.585 46.29-158.764H541v124.899c51.032 3.215 99.745 14.975 144.725 33.865z m50.207 24.904a449.248 449.248 0 0 1 68.903 48.937c55.88-62.746 91.897-143.571 98.18-232.605H788.138c-4.08 66.13-22.507 128.377-52.206 183.668zM541 849.194c44.394-26.387 83.134-61.292 113.965-102.46-35.735-13.96-74.02-22.825-113.965-25.706v128.166z m23.097 51.374c75.9-10.079 144.941-41.875 200.672-88.937h-0.484a392.964 392.964 0 0 0-57.91-40.348c-37.456 52.683-86.02 96.917-142.278 129.285z m-222.315-574.44c-25.666 47.57-41.787 101.05-45.797 157.872H486V358.884c-50.804-2.916-99.34-14.297-144.218-32.755z m-50.397-24.538a449.186 449.186 0 0 1-71.828-50.634C163.453 313.765 127.283 394.76 120.985 484H239.86c4.047-65.628 22.223-127.432 51.524-182.41zM486 175.385c-44.257 26.483-82.856 61.448-113.551 102.648 35.648 13.593 73.79 22.132 113.551 24.744V175.385z m-21.01-52.595c-77.702 9.286-148.422 41.303-205.321 89.21h0.518a392.903 392.903 0 0 0 60.606 41.872c37.808-53.54 87.06-98.42 144.198-131.082zM654.7 276.878c-30.788-41.016-69.433-75.796-113.7-102.108v127.81c39.849-2.906 78.045-11.77 113.7-25.702z m51.415-24.562A392.966 392.966 0 0 0 763.97 212h0.361c-55.635-46.843-124.483-78.493-200.153-88.558 56.093 32.29 104.535 76.377 141.937 128.874zM732.017 484c-4.045-57.343-20.423-111.282-46.498-159.179C640.6 343.7 591.959 355.465 541 358.712V484h191.017z m56.123 0h114.875c-6.295-89.205-42.439-170.17-98.504-232.968a449.25 449.25 0 0 1-68.79 48.87c29.828 55.4 48.333 117.798 52.42 184.098zM512 960C264.576 960 64 759.424 64 512S264.576 64 512 64s448 200.576 448 448-200.576 448-448 448z" p-id="6757"></path></svg>